<?xml version="1.0" encoding="UTF-8" standalone="no"?> <!-- Created with Vectornator for iOS (http://vectornator.io/) --><!DOCTYPE svg PUBLIC "-//W3C//DTD SVG 1.1//EN" "http://www.w3.org/Graphics/SVG/1.1/DTD/svg11.dtd">
<svg style="fill-rule:evenodd;clip-rule:evenodd;stroke-linecap:round;stroke-linejoin:round;" xmlns:vectornator="http://vectornator.io" xmlns:xlink="http://www.w3.org/1999/xlink" xmlns="http://www.w3.org/2000/svg" xml:space="preserve" version="1.1" viewBox="0 0 1024 1024">
<metadata>
<vectornator:setting key="DimensionsVisible" value="1"/>
<vectornator:setting key="SnapToGrid" value="0"/>
<vectornator:setting key="SnapToPoints" value="0"/>
<vectornator:setting key="GuidesVisible" value="1"/>
<vectornator:setting key="RulersVisible" value="1"/>
<vectornator:setting key="SnapToEdges" value="0"/>
<vectornator:setting key="DisplayWhiteBackground" value="0"/>
<vectornator:setting key="SnapToGuides" value="1"/>
<vectornator:setting key="GridSpacing" value="36"/>
<vectornator:setting key="Units" value="Pixels"/>
<vectornator:setting key="DynamicGuides" value="0"/>
<vectornator:setting key="New" value="1"/>
</metadata>
<defs/>
<g id="Layer 3" vectornator:layerName="Layer 3">
<path stroke="#4a1313" stroke-dasharray="17,4,11,12" stroke-opacity="0" stroke-width="0.1" d="M447.978+554.018C447.886+554.25+447.754+554.583+447.384+555.512" fill="#193d7b" stroke-linecap="butt" fill-opacity="0.616162" opacity="1" stroke-linejoin="round"/>
<path stroke="#4a1313" stroke-dasharray="17,4,11,12" stroke-opacity="0" stroke-width="0.1" d="M402.14+564.835C402.265+564.884+402.389+564.934+402.514+564.983" fill="#193d7b" stroke-linecap="butt" fill-opacity="0.616162" opacity="1" stroke-linejoin="round"/>
<path stroke="#4a1313" stroke-opacity="0" stroke-width="0.1" d="M453.564+818.229C442.345+836.18+437.962+841.43+423.306+856.704C372.866+909.27+270.049+899.338+237.432+821.395C224.886+791.415+225.939+775.575+237.27+745.294C245.088+724.402+268.074+711.053+289.724+707.085C345.53+696.857+373.944+757.111+351.146+788.222C343.211+799.049+330.487+813.361+308.619+810.324C368.434+772.721+332.815+715.831+282.882+747.043C232.034+778.825+284.526+841.477+326.571+844.557C395.848+849.632+429.927+705.118+385.83+667.765C349.87+637.306+271.51+697.65+234.578+708.786C141.932+736.721-19.4002+685.014+12.8339+560.478C32.0869+486.094+153.487+460.765+171.526+548.567C174.977+565.362+162.516+575.954+151.845+585.383C142.125+593.971+130.05+592.96+119.719+589.386C110.001+586.024+101.44+568.681+100.923+560.094C100.753+557.268+103.522+548.134+105.465+547.637C104.843+568.395+124.034+571.055+132.51+567.793C142.133+564.089+148.799+555.906+135.539+541.358C83.4177+484.17+34.6814+580.619+80.332+631.431C138.114+695.747+256.146+628.861+297.499+578.23C192.068+530.753+77.3632+472.065+94.9812+335.644C98.8149+305.959+112.726+283.855+135.29+263.817C165.841+236.686+201.231+225.486+234.196+235.677C267.839+246.078+293.911+268.82+291.161+317.615C290.237+333.995+280.673+354.397+269.01+363.148C252.486+375.547+222.777+378.815+210.893+374.245C196.102+368.558+185.614+353.142+188.244+336.348C191.192+317.522+209.586+297.04+236.391+288.121C220.54+307.853+207.478+327.302+205.924+337.206C205.704+338.61+205.369+339.914+206.057+341.177C208.588+345.822+213.509+349.415+213.549+349.415C220.666+349.387+263.299+344.151+247.896+303.801C225.653+245.53+155.597+275.061+154.746+327.179C153.441+407.119+176.411+465.695+262.667+485.292C291.301+491.798+373.935+510.693+378.199+480.148C378.64+479.27+379.124+475.977+379.654+473.346C380.185+470.714+379.221+453.828+378.123+448.344C376.043+437.953+390.842+434.173+388.679+423.799C384.039+401.54+366.727+383.783+358.863+362.448C340.94+313.823+338.086+250.072+354.967+200.598C418.591+14.1283+613.812+30.0647+679.644+202.955C699.402+254.844+689.901+320.138+671.968+370.649C664.768+390.928+649.412+407.984+643.898+428.785C641.777+436.787+652.052+444.744+650.19+452.81C646.086+470.592+631.3+486.227+632.041+504.462C726.019+520.928+842.127+488.4+856.116+379.159C857.851+365.611+852.615+346.226+843.067+328.409C824.7+294.138+793.219+272.236+761.859+302.29C755.536+308.35+752.397+312.681+750.62+319.029C749.497+323.041+747.809+328.494+749.722+333.687C757.11+353.739+756.687+358.78+768.265+360.985C777.636+362.77+783.183+356.391+785.465+353.35C787.746+350.308+789.034+344.882+789.255+343.815C789.725+341.548+790.081+341.874+789.68+337.744C789.157+332.354+789.97+326.452+776.008+318.182C785.845+319.395+794.933+322.299+801.942+329.308C806.361+333.727+807.123+335.879+807.944+338.553C808.878+341.592+809.573+345.284+810.121+353.331C810.486+358.681+809.109+365.815+807.421+368.916C805.46+372.518+804.241+376.201+800.97+379.004C789.686+388.671+777.155+394.375+758.165+388.83C735.382+382.176+718.275+367.198+714.895+337.117C713.78+327.191+712.771+318.78+715.423+309.15C725.19+273.683+750.308+258.673+772.295+251.983C817.817+238.132+871.594+272.096+899.842+319.114C942.809+390.631+890.14+491.643+829.441+533.356C789.35+560.907+735.06+569.087+702.357+605.1C749.054+649.479+901.276+721.501+935.634+623.242C945.378+595.377+945.307+522.734+895.735+539.759C884.543+543.602+876.656+552.043+869.423+561.409C860.306+573.213+857.847+589.213+872.972+593.941C878.768+595.753+887.025+588.697+891.949+584.539C896.529+580.672+897.118+579.098+899.855+573.618C901.556+570.204+905.248+552.811+905.929+554.167C910.28+562.828+908.997+572.17+907.175+580.563C905.632+587.664+901.803+593.624+901.607+593.707C901.578+593.72+900.562+595.645+899.111+596.924C898.156+597.766+896.65+599.189+895.862+599.599C893.79+600.677+892.202+602.213+890.239+603.552C887.279+605.57+883.625+606.743+880.45+607.707C863.485+612.855+846.421+608.943+837.666+592.465C832.722+583.16+831.608+579.827+838.336+561.894C842.827+549.921+851.655+542.336+860.533+534.695C907.467+494.295+992.461+510.101+989.902+584.07C985.649+707.06+863.315+757.163+757.623+719.021C719.223+705.164+683.617+684.32+645.366+670.057C637.447+667.104+627.046+662.909+620.117+667.748C553.9+713.997+609.343+873.257+698.355+858.299C743.066+850.785+748.447+769.616+706.126+754.614C687.232+747.917+668.63+758.603+659.69+776.744C649.637+797.145+680.592+815.897+688.93+823.644C647.035+815.134+611.944+761.694+664.003+731.228C752.523+679.424+821.366+827.132+737.835+888.986C663.314+944.168+554.785+881.03+533.902+798.637C524.938+763.268+538.403+720.652+518.123+690.321C512.636+695.134+511.495+699.444+509.247+705.021C506.432+712.001+502.973+720.487+499.565+728.963C496.169+737.411+493.166+746.547+491.143+751.345C489.873+754.357+488.396+756.921+486.678+760.816C485.289+763.965+483.868+768.276+481.295+772.115" fill="#ffffff" stroke-linecap="butt" opacity="1" stroke-linejoin="round" stroke-dasharray="17,4,11,12"/>
</g>
<g id="Layer 1" vectornator:layerName="Layer 1">
<path stroke="#4a1313" stroke-opacity="0" stroke-width="0.1" d="M102.962+151.627C102.955+151.577+106.507+150.476+106.543+150.465C121.805+145.745+137.238+140.971+152.538+136.372C167.838+131.772+181.687+127.236+196.801+122.037C197.717+121.722+196.556+120.175+197.197+117.058C197.837+113.941+201.835+108.934+206.672+110.935C207.625+111.329+207.635+111.391+208.574+111.953C209.512+112.515+211.237+113.714+211.569+114.709C215.707+127.086+219.43+139.604+222.929+152.19C225.903+162.888+229.352+173.521+232.119+184.274C232.358+185.203+232.554+185.591+232.793+186.52L233.451+188.331L233.651+190.116C233.838+190.848+233.814+191.734+233.631+192.498C233.448+193.263+233.28+194.792+232.896+195.439C230.201+199.979+225.24+200.038+222.864+198.198C220.489+196.358+219.896+192.724+218.636+193.053C202.804+197.187+187.118+202.961+171.491+207.902C155.864+212.844+141.007+216.217+125.796+222.321C125.202+222.559+125.269+222.931+125.358+223.38C125.537+224.28+125.593+225.271+125.425+226.866C125.357+227.513+125.088+228.407+124.99+229.026C124.53+231.927+120.495+235.41+115.573+233.613C114.239+233.126+113.009+231.563+112.033+230.418C111.057+229.273+110.741+227.689+110.258+226.327C105.929+214.107+101.884+201.777+98.0805+189.369C94.2768+176.962+90.7138+164.476+87.3469+151.942C87.1717+151.29+87.3123+150.466+87.3789+149.955C87.5077+148.966+87.816+148.445+88.2267+147.681C88.7327+146.741+89.3284+146.106+90.1392+145.543C90.7207+145.139+91.4153+144.687+92.2547+144.585C95.7058+144.169+99.9202+145.692+101.742+148.869" fill="#ffffff" stroke-linecap="butt" opacity="1" stroke-linejoin="round" stroke-dasharray="17,4,11,12"/>
<path stroke="#4a1313" stroke-opacity="0" stroke-width="0.1" d="M255.699+185.545C255.384+183.425+238.502+129.534+234.986+116.77C232.856+109.036+230.251+97.2895+220.313+99.9199C219.187+100.218+218.052+102.076+217.467+102.975C213.657+108.823+218.245+116.716+220.345+122.649C226.13+138.99+239.292+188.142+243.378+194.298C246.289+198.686+253.862+196.466+255.634+192.271C256.717+189.707+256.085+188.151+255.699+185.545Z" fill="#ffffff" stroke-linecap="butt" opacity="1" stroke-linejoin="round" stroke-dasharray="17,4,11,12"/>
<path stroke="#4a1313" stroke-opacity="0" stroke-width="0.1" d="M105.367+232.561C105.053+230.441+88.1701+176.55+84.6545+163.786C82.5246+156.052+79.9194+144.305+69.9816+146.936C68.8558+147.234+67.7209+149.092+67.1352+149.991C63.3257+155.839+67.9139+163.732+70.0139+169.664C75.7985+186.006+88.9603+235.158+93.0461+241.314C95.9579+245.702+103.531+243.481+105.303+239.287C106.386+236.723+105.754+235.167+105.367+232.561Z" fill="#ffffff" stroke-linecap="butt" opacity="1" stroke-linejoin="round" stroke-dasharray="17,4,11,12"/>
<path stroke="#4a1313" stroke-opacity="0" stroke-width="0.1" d="M227.616+401.102C228.808+404.629+231.88+411.275+236.812+413.035C242.359+415.015+249.915+411.823+253.144+410.545C260.731+407.544+270.849+404.831+271.958+397.139C272.202+395.443+271.967+394.081+271.504+392.385C271.28+391.566+270.637+389.193+270.648+389.586L186.497+208.954L167.983+216.189" fill="#ffffff" stroke-linecap="butt" opacity="1" stroke-linejoin="round" stroke-dasharray="17,4,11,12"/>
</g>
<g id="Layer 1 copy" vectornator:layerName="Layer 1 copy">
<path stroke="#4a1313" stroke-opacity="0" stroke-width="0.1" d="M791.298+139.518C791.324+139.478+794.475+140.925+794.507+140.939C808.041+147.165+821.727+153.458+835.214+159.793C848.701+166.127+861.138+171.595+874.862+177.384C875.694+177.735+875.833+175.9+878.192+174.075C880.55+172.25+886.409+171.185+888.553+175.657C888.976+176.538+888.945+176.589+889.255+177.581C889.564+178.573+890.03+180.514+889.652+181.434C884.944+192.882+879.861+204.169+874.58+215.365C870.091+224.88+865.973+234.648+861.306+244.073C860.903+244.887+860.801+245.288+860.398+246.102L859.746+247.81L858.79+249.211C858.472+249.852+857.911+250.47+857.315+250.901C856.718+251.333+855.663+252.32+854.999+252.541C850.335+254.091+846.841+251.012+846.314+248.204C845.786+245.395+847.602+242.425+846.522+241.868C832.949+234.866+818.473+229.128+804.549+222.832C790.625+216.536+778.199+209.604+763.851+204.4C763.291+204.197+763.11+204.505+762.896+204.882C762.469+205.637+761.9+206.381+760.805+207.415C760.361+207.835+759.624+208.305+759.177+208.685C757.076+210.469+752.127+210.421+749.799+206.041C749.167+204.854+749.268+202.964+749.29+201.532C749.313+200.1+750.064+198.769+750.563+197.492C755.041+186.036+759.784+174.681+764.744+163.422C769.703+152.162+774.878+140.998+780.22+129.924C780.498+129.347+781.101+128.847+781.461+128.523C782.157+127.898+782.692+127.719+783.447+127.432C784.376+127.078+785.181+126.999+786.091+127.106C786.744+127.184+787.506+127.297+788.154+127.752C790.815+129.625+792.818+133.364+792.139+136.78" fill="#ffffff" stroke-linecap="butt" opacity="1" stroke-linejoin="round" stroke-dasharray="17,4,11,12"/>
<path stroke="#4a1313" stroke-opacity="0" stroke-width="0.1" d="M876.963+259.81C878.044+258.097+899.332+208.966+904.711+197.633C907.97+190.767+913.36+180.734+904.819+176.364C903.851+175.869+901.92+176.483+900.961+176.757C894.718+178.541+893.075+187.067+890.9+192.627C884.908+207.944+863.933+251.348+863.005+258.317C862.343+263.284+868.984+266.459+872.792+264.576C875.12+263.424+875.634+261.915+876.963+259.81Z" fill="#ffffff" stroke-linecap="butt" opacity="1" stroke-linejoin="round" stroke-dasharray="17,4,11,12"/>
<path stroke="#4a1313" stroke-opacity="0" stroke-width="0.1" d="M743.33+198.871C744.411+197.158+765.699+148.028+771.078+136.695C774.337+129.828+779.726+119.795+771.185+115.425C770.218+114.93+768.287+115.544+767.327+115.819C761.084+117.603+759.441+126.129+757.266+131.689C751.275+147.005+730.3+190.41+729.371+197.379C728.71+202.345+735.351+205.521+739.159+203.637C741.487+202.486+742.001+200.977+743.33+198.871Z" fill="#ffffff" stroke-linecap="butt" opacity="1" stroke-linejoin="round" stroke-dasharray="17,4,11,12"/>
<path stroke="#4a1313" stroke-opacity="0" stroke-width="0.1" d="M724.873+398.802C724.231+400.294+721.886+406.163+722.766+408.751C724.821+414.796+733.46+419.088+737.474+420.567C744.604+423.194+753.013+426.053+758.505+421.253C760.3+419.683+762.222+415.091+762.225+415.032L814.577+233.358L797.021+226.548" fill="#ffffff" stroke-linecap="butt" opacity="1" stroke-linejoin="round" stroke-dasharray="17,4,11,12"/>
</g>
<g id="Layer 1 copy copy" vectornator:layerName="Layer 1 copy copy">
<path stroke="#4a1313" stroke-opacity="0" stroke-width="0.1" d="M942.959+452.552C942.988+452.532+944.903+454.255+944.923+454.272C953.146+461.678+961.463+469.166+969.626+476.632C977.789+484.098+985.408+490.737+993.875+497.904C994.388+498.338+994.938+497.17+997.083+496.554C999.228+495.937+1003.71+496.68+1004.16+500.137C1004.25+500.819+1004.21+500.844+1004.19+501.57C1004.17+502.296+1004.03+503.683+1003.54+504.193C997.343+510.538+990.919+516.686+984.375+522.725C978.814+527.857+973.457+533.247+967.789+538.277C967.299+538.711+967.128+538.949+966.638+539.383L965.751+540.342L964.719+541.026C964.333+541.367+963.779+541.634+963.243+541.771C962.708+541.907+961.707+542.294+961.174+542.276C957.436+542.145+955.673+539.269+955.98+537.299C956.288+535.329+958.323+533.829+957.682+533.198C949.62+525.274+940.599+517.956+932.111+510.408C923.624+502.86+916.372+495.263+907.312+488.327C906.958+488.056+906.752+488.213+906.506+488.408C906.013+488.798+905.422+489.145+904.38+489.554C903.957+489.72+903.312+489.847+902.896+489.986C900.947+490.639+897.395+489.391+896.789+485.949C896.625+485.016+897.161+483.802+897.527+482.869C897.893+481.936+898.76+481.248+899.432+480.534C905.461+474.127+911.657+467.851+917.984+461.691C924.312+455.531+930.772+449.487+937.329+443.542C937.67+443.232+938.227+443.053+938.566+442.929C939.22+442.69+939.649+442.705+940.263+442.702C941.019+442.698+941.618+442.844+942.247+443.139C942.699+443.35+943.22+443.611+943.574+444.069C945.033+445.95+945.56+448.893+944.235+450.965" fill="#ffffff" stroke-linecap="butt" opacity="1" stroke-linejoin="round" stroke-dasharray="17,4,11,12"/>
<path stroke="#4a1313" stroke-opacity="0" stroke-width="0.1" d="M975.214+552.438C976.412+551.581+1003.77+524.615+1010.42+518.51C1014.44+514.811+1020.78+509.56+1015.7+504.598C1015.12+504.035+1013.58+503.963+1012.82+503.907C1007.89+503.542+1004.62+508.726+1001.69+511.835C993.63+520.4+967.9+543.69+965.526+548.029C963.834+551.121+967.84+554.834+971.044+554.536C973.002+554.354+973.741+553.491+975.214+552.438Z" fill="#ffffff" stroke-linecap="butt" opacity="1" stroke-linejoin="round" stroke-dasharray="17,4,11,12"/>
<path stroke="#4a1313" stroke-opacity="0" stroke-width="0.1" d="M893.885+479.66C895.083+478.803+922.44+451.838+929.088+445.733C933.116+442.034+939.453+436.783+934.371+431.82C933.795+431.258+932.255+431.186+931.496+431.13C926.563+430.765+923.293+435.948+920.366+439.058C912.302+447.623+886.572+470.913+884.198+475.252C882.506+478.344+886.511+482.057+889.715+481.759C891.673+481.576+892.413+480.713+893.885+479.66Z" fill="#ffffff" stroke-linecap="butt" opacity="1" stroke-linejoin="round" stroke-dasharray="17,4,11,12"/>
<path stroke="#4a1313" stroke-opacity="0" stroke-width="0.1" d="M832.505+604.514C832.339+604.772+827.464+610.134+827.07+610.756C824.793+614.35+835.55+622.718+835.55+622.718C835.55+622.718+845.911+632.059+849.221+630.297C850.79+629.463+854.214+625.932+854.306+625.819L935.712+521.118L925.78+510.993" fill="#ffffff" stroke-linecap="butt" opacity="1" stroke-linejoin="round" stroke-dasharray="17,4,11,12"/>
</g>
<g id="Layer 1 copy copy copy" vectornator:layerName="Layer 1 copy copy copy">
<path stroke="#4a1313" stroke-opacity="0" stroke-width="0.1" d="M28.4208+457.566C28.4111+457.535+30.6759+456.37+30.6988+456.358C40.4316+451.358+50.2721+446.301+60.0418+441.374C69.8114+436.446+78.6178+431.746+88.2034+426.458C88.7844+426.137+87.8563+425.294+87.9766+423.209C88.0969+421.125+90.2744+417.394+93.7038+418.055C94.3796+418.185+94.3922+418.223+95.0749+418.463C95.7576+418.703+97.0281+419.25+97.3485+419.846C101.335+427.26+105.058+434.818+108.638+442.449C111.68+448.935+115.034+455.318+117.944+461.866C118.196+462.432+118.365+462.656+118.616+463.221L119.235+464.299L119.544+465.42C119.742+465.866+119.813+466.438+119.766+466.952C119.72+467.467+119.758+468.471+119.565+468.935C118.212+472.199+114.903+472.876+113.134+472.001C111.365+471.126+110.611+468.869+109.801+469.243C99.6302+473.941+89.7188+479.672+79.7646+484.862C69.8105+490.051+60.2162+494.134+50.6543+500.016C50.2809+500.246+50.3623+500.476+50.4662+500.753C50.6744+501.308+50.8099+501.937+50.8551+502.983C50.8735+503.407+50.7817+504.016+50.7772+504.426C50.756+506.348+48.404+509.105+44.9376+508.586C43.9982+508.446+43.0221+507.601+42.2571+506.992C41.4921+506.382+41.1243+505.406+40.6675+504.594C36.5686+497.305+32.6495+489.909+28.8835+482.432C25.1176+474.956+21.5047+467.397+18.0182+459.783C17.8367+459.387+17.8494+458.84+17.8434+458.503C17.8319+457.851+17.9865+457.477+18.1856+456.934C18.4309+456.264+18.7663+455.78+19.2525+455.314C19.6012+454.98+20.0207+454.599+20.5716+454.426C22.8365+453.713+25.8029+454.148+27.3336+455.953" fill="#ffffff" stroke-linecap="butt" opacity="1" stroke-linejoin="round" stroke-dasharray="17,4,11,12"/>
<path stroke="#4a1313" stroke-opacity="0" stroke-width="0.1" d="M133.825+459.64C133.406+458.319+116.807+425.892+113.199+418.148C111.012+413.457+108.113+406.25+101.732+409.221C101.009+409.558+100.434+410.897+100.131+411.55C98.1629+415.797+102.007+420.274+103.996+423.812C109.474+433.56+123.119+463.425+126.456+466.851C128.835+469.292+133.676+466.889+134.446+463.967C134.917+462.181+134.341+461.263+133.825+459.64Z" fill="#ffffff" stroke-linecap="butt" opacity="1" stroke-linejoin="round" stroke-dasharray="17,4,11,12"/>
<path stroke="#4a1313" stroke-opacity="0" stroke-width="0.1" d="M38.0146+509.228C37.5951+507.907+20.9965+475.479+17.3878+467.736C15.2015+463.045+12.3016+455.838+5.92083+458.809C5.198+459.146+4.62298+460.485+4.32037+461.138C2.35199+465.385+6.19657+469.861+8.18519+473.4C13.663+483.147+27.3078+513.012+30.6454+516.438C33.024+518.88+37.865+516.477+38.6351+513.555C39.1058+511.769+38.53+510.851+38.0146+509.228Z" fill="#ffffff" stroke-linecap="butt" opacity="1" stroke-linejoin="round" stroke-dasharray="17,4,11,12"/>
<path stroke="#4a1313" stroke-opacity="0" stroke-width="0.1" d="M136.332+601.683C136.454+601.874+139.423+606.877+139.871+607.41C142.499+610.54+152.034+606.93+155.313+604.933C160.086+602.027+165.587+598.5+165.569+593.417C165.563+591.756+164.523+590.066+163.949+588.736L91.1137+484.958L78.2386+490.635" fill="#ffffff" stroke-linecap="butt" opacity="1" stroke-linejoin="round" stroke-dasharray="17,4,11,12"/>
</g>
</svg>
